<mxfile host="app.diagrams.net" agent="Mozilla/5.0 (Windows NT 10.0; Win64; x64) AppleWebKit/537.36 (KHTML, like Gecko) Chrome/126.0.0.0 YaBrowser/24.7.0.0 Safari/537.36" version="24.7.17">
  <diagram name="Страница — 1" id="N7Sg3UH5Ts3uhFPLQ2yA">
    <mxGraphModel dx="1604" dy="941" grid="0" gridSize="10" guides="1" tooltips="1" connect="1" arrows="1" fold="1" page="1" pageScale="1" pageWidth="827" pageHeight="1169" math="0" shadow="0">
      <root>
        <mxCell id="0" />
        <mxCell id="1" parent="0" />
        <mxCell id="wEMUQGd51u5xN57m91uB-100" value="" style="rounded=0;whiteSpace=wrap;html=1;fillColor=#B3B3B3;strokeColor=#000000;" parent="1" vertex="1">
          <mxGeometry x="927" y="386" width="184" height="61" as="geometry" />
        </mxCell>
        <mxCell id="5lqwtr8k2KFm3o20Jcil-53" value="" style="endArrow=classic;html=1;rounded=0;exitX=1;exitY=0.5;exitDx=0;exitDy=0;entryX=0;entryY=0.5;entryDx=0;entryDy=0;edgeStyle=orthogonalEdgeStyle;curved=1;strokeColor=#CCCCCC;" parent="1" source="5lqwtr8k2KFm3o20Jcil-29" target="5lqwtr8k2KFm3o20Jcil-50" edge="1">
          <mxGeometry width="50" height="50" relative="1" as="geometry">
            <mxPoint x="315" y="272" as="sourcePoint" />
            <mxPoint x="365" y="222" as="targetPoint" />
          </mxGeometry>
        </mxCell>
        <mxCell id="5lqwtr8k2KFm3o20Jcil-49" value="" style="endArrow=classic;html=1;rounded=0;exitX=1;exitY=0.5;exitDx=0;exitDy=0;entryX=0;entryY=0.5;entryDx=0;entryDy=0;edgeStyle=orthogonalEdgeStyle;curved=1;strokeColor=#CCCCCC;" parent="1" source="5lqwtr8k2KFm3o20Jcil-25" target="5lqwtr8k2KFm3o20Jcil-40" edge="1">
          <mxGeometry width="50" height="50" relative="1" as="geometry">
            <mxPoint x="257" y="158" as="sourcePoint" />
            <mxPoint x="307" y="108" as="targetPoint" />
            <Array as="points">
              <mxPoint x="208" y="122" />
              <mxPoint x="208" y="362" />
            </Array>
          </mxGeometry>
        </mxCell>
        <mxCell id="5lqwtr8k2KFm3o20Jcil-17" value="" style="endArrow=none;dashed=1;html=1;rounded=0;entryX=1;entryY=1;entryDx=0;entryDy=0;" parent="1" target="5lqwtr8k2KFm3o20Jcil-13" edge="1">
          <mxGeometry width="50" height="50" relative="1" as="geometry">
            <mxPoint x="254" y="551" as="sourcePoint" />
            <mxPoint x="209" y="200" as="targetPoint" />
          </mxGeometry>
        </mxCell>
        <mxCell id="5lqwtr8k2KFm3o20Jcil-14" value="" style="endArrow=none;dashed=1;html=1;rounded=0;entryX=1;entryY=1;entryDx=0;entryDy=0;" parent="1" target="5lqwtr8k2KFm3o20Jcil-11" edge="1">
          <mxGeometry width="50" height="50" relative="1" as="geometry">
            <mxPoint x="197" y="553" as="sourcePoint" />
            <mxPoint x="109" y="235" as="targetPoint" />
          </mxGeometry>
        </mxCell>
        <mxCell id="5lqwtr8k2KFm3o20Jcil-1" value="" style="endArrow=none;html=1;rounded=0;strokeWidth=1;" parent="1" edge="1">
          <mxGeometry width="50" height="50" relative="1" as="geometry">
            <mxPoint x="23" y="620" as="sourcePoint" />
            <mxPoint x="23" y="88" as="targetPoint" />
          </mxGeometry>
        </mxCell>
        <mxCell id="5lqwtr8k2KFm3o20Jcil-3" value="" style="endArrow=classic;html=1;rounded=0;" parent="1" edge="1">
          <mxGeometry width="50" height="50" relative="1" as="geometry">
            <mxPoint x="23" y="190" as="sourcePoint" />
            <mxPoint x="722" y="190" as="targetPoint" />
          </mxGeometry>
        </mxCell>
        <mxCell id="5lqwtr8k2KFm3o20Jcil-4" value="t" style="edgeLabel;html=1;align=center;verticalAlign=middle;resizable=0;points=[];" parent="5lqwtr8k2KFm3o20Jcil-3" vertex="1" connectable="0">
          <mxGeometry x="0.9802" y="-2" relative="1" as="geometry">
            <mxPoint x="8" y="4" as="offset" />
          </mxGeometry>
        </mxCell>
        <mxCell id="5lqwtr8k2KFm3o20Jcil-5" value="" style="endArrow=classic;html=1;rounded=0;" parent="1" edge="1">
          <mxGeometry width="50" height="50" relative="1" as="geometry">
            <mxPoint x="24" y="310" as="sourcePoint" />
            <mxPoint x="729" y="310" as="targetPoint" />
          </mxGeometry>
        </mxCell>
        <mxCell id="5lqwtr8k2KFm3o20Jcil-6" value="t" style="edgeLabel;html=1;align=center;verticalAlign=middle;resizable=0;points=[];" parent="5lqwtr8k2KFm3o20Jcil-5" vertex="1" connectable="0">
          <mxGeometry x="0.9802" y="-2" relative="1" as="geometry">
            <mxPoint x="8" y="4" as="offset" />
          </mxGeometry>
        </mxCell>
        <mxCell id="5lqwtr8k2KFm3o20Jcil-7" value="" style="endArrow=classic;html=1;rounded=0;" parent="1" edge="1">
          <mxGeometry width="50" height="50" relative="1" as="geometry">
            <mxPoint x="24" y="431" as="sourcePoint" />
            <mxPoint x="734" y="431" as="targetPoint" />
          </mxGeometry>
        </mxCell>
        <mxCell id="5lqwtr8k2KFm3o20Jcil-8" value="t" style="edgeLabel;html=1;align=center;verticalAlign=middle;resizable=0;points=[];" parent="5lqwtr8k2KFm3o20Jcil-7" vertex="1" connectable="0">
          <mxGeometry x="0.9802" y="-2" relative="1" as="geometry">
            <mxPoint x="8" y="4" as="offset" />
          </mxGeometry>
        </mxCell>
        <mxCell id="5lqwtr8k2KFm3o20Jcil-9" value="" style="endArrow=classic;html=1;rounded=0;" parent="1" edge="1">
          <mxGeometry width="50" height="50" relative="1" as="geometry">
            <mxPoint x="23" y="552" as="sourcePoint" />
            <mxPoint x="734" y="552" as="targetPoint" />
          </mxGeometry>
        </mxCell>
        <mxCell id="5lqwtr8k2KFm3o20Jcil-10" value="t" style="edgeLabel;html=1;align=center;verticalAlign=middle;resizable=0;points=[];" parent="5lqwtr8k2KFm3o20Jcil-9" vertex="1" connectable="0">
          <mxGeometry x="0.9802" y="-2" relative="1" as="geometry">
            <mxPoint x="8" y="4" as="offset" />
          </mxGeometry>
        </mxCell>
        <mxCell id="5lqwtr8k2KFm3o20Jcil-11" value="" style="rounded=0;whiteSpace=wrap;html=1;fillColor=#B3B3B3;strokeColor=#000000;" parent="1" vertex="1">
          <mxGeometry x="79" y="129" width="120" height="61" as="geometry" />
        </mxCell>
        <mxCell id="5lqwtr8k2KFm3o20Jcil-12" value="" style="rounded=0;whiteSpace=wrap;html=1;fillColor=#B3B3B3;strokeColor=#000000;" parent="1" vertex="1">
          <mxGeometry x="233.5" y="370" width="120" height="61" as="geometry" />
        </mxCell>
        <mxCell id="5lqwtr8k2KFm3o20Jcil-13" value="" style="rounded=0;whiteSpace=wrap;html=1;fillColor=#B3B3B3;strokeColor=#000000;" parent="1" vertex="1">
          <mxGeometry x="134" y="249" width="120" height="61" as="geometry" />
        </mxCell>
        <mxCell id="5lqwtr8k2KFm3o20Jcil-18" value="" style="rounded=0;whiteSpace=wrap;html=1;fillColor=#B3B3B3;strokeColor=#000000;" parent="1" vertex="1">
          <mxGeometry x="293.5" y="491" width="120" height="61" as="geometry" />
        </mxCell>
        <mxCell id="5lqwtr8k2KFm3o20Jcil-19" value="" style="endArrow=none;dashed=1;html=1;rounded=0;entryX=1;entryY=1;entryDx=0;entryDy=0;" parent="1" target="5lqwtr8k2KFm3o20Jcil-12" edge="1">
          <mxGeometry width="50" height="50" relative="1" as="geometry">
            <mxPoint x="355" y="552" as="sourcePoint" />
            <mxPoint x="264" y="320" as="targetPoint" />
          </mxGeometry>
        </mxCell>
        <mxCell id="5lqwtr8k2KFm3o20Jcil-20" value="Кл. &quot;1&quot;" style="rounded=0;whiteSpace=wrap;html=1;" parent="1" vertex="1">
          <mxGeometry x="98.5" y="149.5" width="81" height="20" as="geometry" />
        </mxCell>
        <mxCell id="5lqwtr8k2KFm3o20Jcil-21" value="Кл. &quot;2&quot;" style="rounded=0;whiteSpace=wrap;html=1;" parent="1" vertex="1">
          <mxGeometry x="153.5" y="269.5" width="81" height="20" as="geometry" />
        </mxCell>
        <mxCell id="5lqwtr8k2KFm3o20Jcil-22" value="Кл. &quot;Alt + F2&quot;" style="rounded=0;whiteSpace=wrap;html=1;" parent="1" vertex="1">
          <mxGeometry x="253" y="390.5" width="81" height="20" as="geometry" />
        </mxCell>
        <mxCell id="5lqwtr8k2KFm3o20Jcil-23" value="Кл. &quot;3&quot;" style="rounded=0;whiteSpace=wrap;html=1;" parent="1" vertex="1">
          <mxGeometry x="313" y="511.5" width="81" height="20" as="geometry" />
        </mxCell>
        <mxCell id="5lqwtr8k2KFm3o20Jcil-24" value="R=&quot;**&quot;" style="text;html=1;align=center;verticalAlign=middle;whiteSpace=wrap;rounded=0;" parent="1" vertex="1">
          <mxGeometry x="79" y="114" width="32" height="15" as="geometry" />
        </mxCell>
        <mxCell id="5lqwtr8k2KFm3o20Jcil-25" value="R=&quot;***&quot;" style="text;html=1;align=center;verticalAlign=middle;whiteSpace=wrap;rounded=0;" parent="1" vertex="1">
          <mxGeometry x="162" y="114" width="37" height="15" as="geometry" />
        </mxCell>
        <mxCell id="5lqwtr8k2KFm3o20Jcil-28" value="R=&quot;**&quot;" style="text;html=1;align=center;verticalAlign=middle;whiteSpace=wrap;rounded=0;" parent="1" vertex="1">
          <mxGeometry x="134" y="234" width="32" height="15" as="geometry" />
        </mxCell>
        <mxCell id="5lqwtr8k2KFm3o20Jcil-29" value="R=&quot;****&quot;" style="text;html=1;align=center;verticalAlign=middle;whiteSpace=wrap;rounded=0;" parent="1" vertex="1">
          <mxGeometry x="222" y="234" width="32" height="15" as="geometry" />
        </mxCell>
        <mxCell id="5lqwtr8k2KFm3o20Jcil-31" value="tк1" style="text;html=1;align=center;verticalAlign=middle;whiteSpace=wrap;rounded=0;fillColor=#ffe6cc;strokeColor=#d79b00;" parent="1" vertex="1">
          <mxGeometry x="184" y="193" width="32" height="15" as="geometry" />
        </mxCell>
        <mxCell id="5lqwtr8k2KFm3o20Jcil-33" value="tн1" style="text;html=1;align=center;verticalAlign=middle;whiteSpace=wrap;rounded=0;fillColor=#ffe6cc;strokeColor=#d79b00;" parent="1" vertex="1">
          <mxGeometry x="62" y="193" width="32" height="15" as="geometry" />
        </mxCell>
        <mxCell id="5lqwtr8k2KFm3o20Jcil-38" value="tн2" style="text;html=1;align=center;verticalAlign=middle;whiteSpace=wrap;rounded=0;fillColor=#ffe6cc;strokeColor=#d79b00;" parent="1" vertex="1">
          <mxGeometry x="118" y="313" width="32" height="15" as="geometry" />
        </mxCell>
        <mxCell id="5lqwtr8k2KFm3o20Jcil-39" value="tк2" style="text;html=1;align=center;verticalAlign=middle;whiteSpace=wrap;rounded=0;fillColor=#ffe6cc;strokeColor=#d79b00;" parent="1" vertex="1">
          <mxGeometry x="238" y="313" width="32" height="15" as="geometry" />
        </mxCell>
        <mxCell id="5lqwtr8k2KFm3o20Jcil-40" value="R=&quot;***&quot;" style="text;html=1;align=center;verticalAlign=middle;whiteSpace=wrap;rounded=0;" parent="1" vertex="1">
          <mxGeometry x="234.5" y="355" width="32" height="15" as="geometry" />
        </mxCell>
        <mxCell id="5lqwtr8k2KFm3o20Jcil-41" value="R=&quot;*&quot;" style="text;html=1;align=center;verticalAlign=middle;whiteSpace=wrap;rounded=0;" parent="1" vertex="1">
          <mxGeometry x="317" y="355" width="39" height="15" as="geometry" />
        </mxCell>
        <mxCell id="5lqwtr8k2KFm3o20Jcil-42" value="tн3" style="text;html=1;align=center;verticalAlign=middle;whiteSpace=wrap;rounded=0;fillColor=#ffe6cc;strokeColor=#d79b00;" parent="1" vertex="1">
          <mxGeometry x="218.5" y="434" width="32" height="15" as="geometry" />
        </mxCell>
        <mxCell id="5lqwtr8k2KFm3o20Jcil-43" value="tк3" style="text;html=1;align=center;verticalAlign=middle;whiteSpace=wrap;rounded=0;fillColor=#ffe6cc;strokeColor=#d79b00;" parent="1" vertex="1">
          <mxGeometry x="337.5" y="434" width="32" height="15" as="geometry" />
        </mxCell>
        <mxCell id="5lqwtr8k2KFm3o20Jcil-44" value="tк4" style="text;html=1;align=center;verticalAlign=middle;whiteSpace=wrap;rounded=0;fillColor=#ffe6cc;strokeColor=#d79b00;" parent="1" vertex="1">
          <mxGeometry x="396.5" y="557" width="32" height="15" as="geometry" />
        </mxCell>
        <mxCell id="5lqwtr8k2KFm3o20Jcil-45" value="tн4" style="text;html=1;align=center;verticalAlign=middle;whiteSpace=wrap;rounded=0;fillColor=#ffe6cc;strokeColor=#d79b00;" parent="1" vertex="1">
          <mxGeometry x="278.5" y="557" width="32" height="15" as="geometry" />
        </mxCell>
        <mxCell id="5lqwtr8k2KFm3o20Jcil-46" value="R=&quot;**&quot;" style="text;html=1;align=center;verticalAlign=middle;whiteSpace=wrap;rounded=0;" parent="1" vertex="1">
          <mxGeometry x="27" y="73" width="32" height="15" as="geometry" />
        </mxCell>
        <mxCell id="5lqwtr8k2KFm3o20Jcil-47" value="" style="endArrow=classic;html=1;rounded=0;exitX=0;exitY=1;exitDx=0;exitDy=0;entryX=0;entryY=0.5;entryDx=0;entryDy=0;edgeStyle=orthogonalEdgeStyle;curved=1;strokeColor=#CCCCCC;" parent="1" source="5lqwtr8k2KFm3o20Jcil-46" target="5lqwtr8k2KFm3o20Jcil-24" edge="1">
          <mxGeometry width="50" height="50" relative="1" as="geometry">
            <mxPoint x="98" y="141" as="sourcePoint" />
            <mxPoint x="148" y="91" as="targetPoint" />
          </mxGeometry>
        </mxCell>
        <mxCell id="5lqwtr8k2KFm3o20Jcil-48" value="" style="endArrow=classic;html=1;rounded=0;exitX=0;exitY=1;exitDx=0;exitDy=0;entryX=0;entryY=0.5;entryDx=0;entryDy=0;edgeStyle=orthogonalEdgeStyle;curved=1;strokeColor=#CCCCCC;" parent="1" source="5lqwtr8k2KFm3o20Jcil-46" target="5lqwtr8k2KFm3o20Jcil-28" edge="1">
          <mxGeometry width="50" height="50" relative="1" as="geometry">
            <mxPoint x="122" y="70" as="sourcePoint" />
            <mxPoint x="172" y="20" as="targetPoint" />
          </mxGeometry>
        </mxCell>
        <mxCell id="5lqwtr8k2KFm3o20Jcil-50" value="R=&quot;****&quot;" style="text;html=1;align=center;verticalAlign=middle;whiteSpace=wrap;rounded=0;" parent="1" vertex="1">
          <mxGeometry x="290.5" y="476" width="32" height="15" as="geometry" />
        </mxCell>
        <mxCell id="5lqwtr8k2KFm3o20Jcil-51" value="R=&quot;*******&quot;" style="text;html=1;align=center;verticalAlign=middle;whiteSpace=wrap;rounded=0;" parent="1" vertex="1">
          <mxGeometry x="381.5" y="476" width="39" height="15" as="geometry" />
        </mxCell>
        <mxCell id="wEMUQGd51u5xN57m91uB-5" value="" style="endArrow=none;html=1;rounded=0;strokeWidth=1;" parent="1" edge="1">
          <mxGeometry width="50" height="50" relative="1" as="geometry">
            <mxPoint x="876" y="187" as="sourcePoint" />
            <mxPoint x="876" y="17" as="targetPoint" />
          </mxGeometry>
        </mxCell>
        <mxCell id="wEMUQGd51u5xN57m91uB-6" value="" style="endArrow=classic;html=1;rounded=0;" parent="1" edge="1">
          <mxGeometry width="50" height="50" relative="1" as="geometry">
            <mxPoint x="876" y="119" as="sourcePoint" />
            <mxPoint x="1750" y="119" as="targetPoint" />
          </mxGeometry>
        </mxCell>
        <mxCell id="wEMUQGd51u5xN57m91uB-7" value="t" style="edgeLabel;html=1;align=center;verticalAlign=middle;resizable=0;points=[];" parent="wEMUQGd51u5xN57m91uB-6" vertex="1" connectable="0">
          <mxGeometry x="0.9802" y="-2" relative="1" as="geometry">
            <mxPoint x="8" y="4" as="offset" />
          </mxGeometry>
        </mxCell>
        <mxCell id="wEMUQGd51u5xN57m91uB-14" value="" style="rounded=0;whiteSpace=wrap;html=1;fillColor=#B3B3B3;strokeColor=#000000;" parent="1" vertex="1">
          <mxGeometry x="916" y="58" width="120" height="61" as="geometry" />
        </mxCell>
        <mxCell id="wEMUQGd51u5xN57m91uB-15" value="" style="rounded=0;whiteSpace=wrap;html=1;fillColor=#B3B3B3;strokeColor=#000000;" parent="1" vertex="1">
          <mxGeometry x="1242" y="58" width="120" height="61" as="geometry" />
        </mxCell>
        <mxCell id="wEMUQGd51u5xN57m91uB-16" value="" style="rounded=0;whiteSpace=wrap;html=1;fillColor=#B3B3B3;strokeColor=#000000;" parent="1" vertex="1">
          <mxGeometry x="1081" y="58" width="120" height="61" as="geometry" />
        </mxCell>
        <mxCell id="wEMUQGd51u5xN57m91uB-17" value="" style="rounded=0;whiteSpace=wrap;html=1;fillColor=#B3B3B3;strokeColor=#000000;" parent="1" vertex="1">
          <mxGeometry x="1405" y="58" width="120" height="61" as="geometry" />
        </mxCell>
        <mxCell id="wEMUQGd51u5xN57m91uB-19" value="1.txt" style="rounded=0;whiteSpace=wrap;html=1;" parent="1" vertex="1">
          <mxGeometry x="935.5" y="78.5" width="81" height="20" as="geometry" />
        </mxCell>
        <mxCell id="wEMUQGd51u5xN57m91uB-20" value="2.txt" style="rounded=0;whiteSpace=wrap;html=1;" parent="1" vertex="1">
          <mxGeometry x="1100.5" y="78.5" width="81" height="20" as="geometry" />
        </mxCell>
        <mxCell id="wEMUQGd51u5xN57m91uB-21" value="3.txt" style="rounded=0;whiteSpace=wrap;html=1;" parent="1" vertex="1">
          <mxGeometry x="1261.5" y="78.5" width="81" height="20" as="geometry" />
        </mxCell>
        <mxCell id="wEMUQGd51u5xN57m91uB-22" value="4.txt" style="rounded=0;whiteSpace=wrap;html=1;" parent="1" vertex="1">
          <mxGeometry x="1424.5" y="78.5" width="81" height="20" as="geometry" />
        </mxCell>
        <mxCell id="wEMUQGd51u5xN57m91uB-27" value="227" style="text;html=1;align=center;verticalAlign=middle;whiteSpace=wrap;rounded=0;fillColor=#ffe6cc;strokeColor=#d79b00;" parent="1" vertex="1">
          <mxGeometry x="1021" y="122" width="32" height="15" as="geometry" />
        </mxCell>
        <mxCell id="wEMUQGd51u5xN57m91uB-28" value="1" style="text;html=1;align=center;verticalAlign=middle;whiteSpace=wrap;rounded=0;fillColor=#ffe6cc;strokeColor=#d79b00;" parent="1" vertex="1">
          <mxGeometry x="899" y="122" width="32" height="15" as="geometry" />
        </mxCell>
        <mxCell id="wEMUQGd51u5xN57m91uB-29" value="228" style="text;html=1;align=center;verticalAlign=middle;whiteSpace=wrap;rounded=0;fillColor=#ffe6cc;strokeColor=#d79b00;" parent="1" vertex="1">
          <mxGeometry x="1065" y="122" width="32" height="15" as="geometry" />
        </mxCell>
        <mxCell id="wEMUQGd51u5xN57m91uB-30" value="540" style="text;html=1;align=center;verticalAlign=middle;whiteSpace=wrap;rounded=0;fillColor=#ffe6cc;strokeColor=#d79b00;" parent="1" vertex="1">
          <mxGeometry x="1185" y="122" width="32" height="15" as="geometry" />
        </mxCell>
        <mxCell id="wEMUQGd51u5xN57m91uB-33" value="541" style="text;html=1;align=center;verticalAlign=middle;whiteSpace=wrap;rounded=0;fillColor=#ffe6cc;strokeColor=#d79b00;" parent="1" vertex="1">
          <mxGeometry x="1227" y="122" width="32" height="15" as="geometry" />
        </mxCell>
        <mxCell id="wEMUQGd51u5xN57m91uB-34" value="914" style="text;html=1;align=center;verticalAlign=middle;whiteSpace=wrap;rounded=0;fillColor=#ffe6cc;strokeColor=#d79b00;" parent="1" vertex="1">
          <mxGeometry x="1346" y="122" width="32" height="15" as="geometry" />
        </mxCell>
        <mxCell id="wEMUQGd51u5xN57m91uB-35" value="1177" style="text;html=1;align=center;verticalAlign=middle;whiteSpace=wrap;rounded=0;fillColor=#ffe6cc;strokeColor=#d79b00;" parent="1" vertex="1">
          <mxGeometry x="1508" y="122" width="32" height="15" as="geometry" />
        </mxCell>
        <mxCell id="wEMUQGd51u5xN57m91uB-36" value="915" style="text;html=1;align=center;verticalAlign=middle;whiteSpace=wrap;rounded=0;fillColor=#ffe6cc;strokeColor=#d79b00;" parent="1" vertex="1">
          <mxGeometry x="1390" y="122" width="32" height="15" as="geometry" />
        </mxCell>
        <mxCell id="wEMUQGd51u5xN57m91uB-42" value="" style="rounded=0;whiteSpace=wrap;html=1;fillColor=#B3B3B3;strokeColor=#000000;" parent="1" vertex="1">
          <mxGeometry x="1567" y="58" width="120" height="61" as="geometry" />
        </mxCell>
        <mxCell id="wEMUQGd51u5xN57m91uB-43" value="5.txt" style="rounded=0;whiteSpace=wrap;html=1;" parent="1" vertex="1">
          <mxGeometry x="1586.5" y="78.5" width="81" height="20" as="geometry" />
        </mxCell>
        <mxCell id="wEMUQGd51u5xN57m91uB-44" value="1404" style="text;html=1;align=center;verticalAlign=middle;whiteSpace=wrap;rounded=0;fillColor=#ffe6cc;strokeColor=#d79b00;" parent="1" vertex="1">
          <mxGeometry x="1670" y="122" width="32" height="15" as="geometry" />
        </mxCell>
        <mxCell id="wEMUQGd51u5xN57m91uB-45" value="1177" style="text;html=1;align=center;verticalAlign=middle;whiteSpace=wrap;rounded=0;fillColor=#ffe6cc;strokeColor=#d79b00;" parent="1" vertex="1">
          <mxGeometry x="1552" y="122" width="32" height="15" as="geometry" />
        </mxCell>
        <mxCell id="wEMUQGd51u5xN57m91uB-52" value="" style="endArrow=none;html=1;rounded=0;strokeWidth=1;" parent="1" edge="1">
          <mxGeometry width="50" height="50" relative="1" as="geometry">
            <mxPoint x="876" y="860" as="sourcePoint" />
            <mxPoint x="875.5" y="225" as="targetPoint" />
          </mxGeometry>
        </mxCell>
        <mxCell id="wEMUQGd51u5xN57m91uB-53" value="" style="endArrow=classic;html=1;rounded=0;" parent="1" edge="1">
          <mxGeometry width="50" height="50" relative="1" as="geometry">
            <mxPoint x="875.5" y="327" as="sourcePoint" />
            <mxPoint x="1574.5" y="327" as="targetPoint" />
          </mxGeometry>
        </mxCell>
        <mxCell id="wEMUQGd51u5xN57m91uB-54" value="t" style="edgeLabel;html=1;align=center;verticalAlign=middle;resizable=0;points=[];" parent="wEMUQGd51u5xN57m91uB-53" vertex="1" connectable="0">
          <mxGeometry x="0.9802" y="-2" relative="1" as="geometry">
            <mxPoint x="8" y="4" as="offset" />
          </mxGeometry>
        </mxCell>
        <mxCell id="wEMUQGd51u5xN57m91uB-55" value="" style="endArrow=classic;html=1;rounded=0;" parent="1" edge="1">
          <mxGeometry width="50" height="50" relative="1" as="geometry">
            <mxPoint x="876.5" y="447" as="sourcePoint" />
            <mxPoint x="1581.5" y="447" as="targetPoint" />
          </mxGeometry>
        </mxCell>
        <mxCell id="wEMUQGd51u5xN57m91uB-56" value="t" style="edgeLabel;html=1;align=center;verticalAlign=middle;resizable=0;points=[];" parent="wEMUQGd51u5xN57m91uB-55" vertex="1" connectable="0">
          <mxGeometry x="0.9802" y="-2" relative="1" as="geometry">
            <mxPoint x="8" y="4" as="offset" />
          </mxGeometry>
        </mxCell>
        <mxCell id="wEMUQGd51u5xN57m91uB-57" value="" style="endArrow=classic;html=1;rounded=0;" parent="1" edge="1">
          <mxGeometry width="50" height="50" relative="1" as="geometry">
            <mxPoint x="876.5" y="568" as="sourcePoint" />
            <mxPoint x="1586.5" y="568" as="targetPoint" />
          </mxGeometry>
        </mxCell>
        <mxCell id="wEMUQGd51u5xN57m91uB-58" value="t" style="edgeLabel;html=1;align=center;verticalAlign=middle;resizable=0;points=[];" parent="wEMUQGd51u5xN57m91uB-57" vertex="1" connectable="0">
          <mxGeometry x="0.9802" y="-2" relative="1" as="geometry">
            <mxPoint x="8" y="4" as="offset" />
          </mxGeometry>
        </mxCell>
        <mxCell id="wEMUQGd51u5xN57m91uB-59" value="" style="endArrow=classic;html=1;rounded=0;" parent="1" edge="1">
          <mxGeometry width="50" height="50" relative="1" as="geometry">
            <mxPoint x="875.5" y="689" as="sourcePoint" />
            <mxPoint x="1586.5" y="689" as="targetPoint" />
          </mxGeometry>
        </mxCell>
        <mxCell id="wEMUQGd51u5xN57m91uB-60" value="t" style="edgeLabel;html=1;align=center;verticalAlign=middle;resizable=0;points=[];" parent="wEMUQGd51u5xN57m91uB-59" vertex="1" connectable="0">
          <mxGeometry x="0.9802" y="-2" relative="1" as="geometry">
            <mxPoint x="8" y="4" as="offset" />
          </mxGeometry>
        </mxCell>
        <mxCell id="wEMUQGd51u5xN57m91uB-61" value="" style="rounded=0;whiteSpace=wrap;html=1;fillColor=#B3B3B3;strokeColor=#000000;" parent="1" vertex="1">
          <mxGeometry x="928" y="266" width="138" height="61" as="geometry" />
        </mxCell>
        <mxCell id="wEMUQGd51u5xN57m91uB-62" value="" style="rounded=0;whiteSpace=wrap;html=1;fillColor=#B3B3B3;strokeColor=#000000;" parent="1" vertex="1">
          <mxGeometry x="936" y="507" width="194" height="61" as="geometry" />
        </mxCell>
        <mxCell id="wEMUQGd51u5xN57m91uB-64" value="" style="rounded=0;whiteSpace=wrap;html=1;fillColor=#B3B3B3;strokeColor=#000000;" parent="1" vertex="1">
          <mxGeometry x="936" y="628" width="158" height="61" as="geometry" />
        </mxCell>
        <mxCell id="wEMUQGd51u5xN57m91uB-66" value="1.txt" style="rounded=0;whiteSpace=wrap;html=1;" parent="1" vertex="1">
          <mxGeometry x="956.5" y="286.5" width="81" height="20" as="geometry" />
        </mxCell>
        <mxCell id="wEMUQGd51u5xN57m91uB-67" value="2.txt" style="rounded=0;whiteSpace=wrap;html=1;" parent="1" vertex="1">
          <mxGeometry x="978.5" y="406.5" width="81" height="20" as="geometry" />
        </mxCell>
        <mxCell id="wEMUQGd51u5xN57m91uB-68" value="3.txt" style="rounded=0;whiteSpace=wrap;html=1;" parent="1" vertex="1">
          <mxGeometry x="996.5" y="527.5" width="81" height="20" as="geometry" />
        </mxCell>
        <mxCell id="wEMUQGd51u5xN57m91uB-69" value="4.txt" style="rounded=0;whiteSpace=wrap;html=1;" parent="1" vertex="1">
          <mxGeometry x="979" y="648.5" width="81" height="20" as="geometry" />
        </mxCell>
        <mxCell id="wEMUQGd51u5xN57m91uB-74" value="240" style="text;html=1;align=center;verticalAlign=middle;whiteSpace=wrap;rounded=0;fillColor=#ffe6cc;strokeColor=#d79b00;" parent="1" vertex="1">
          <mxGeometry x="1049" y="330" width="32" height="15" as="geometry" />
        </mxCell>
        <mxCell id="wEMUQGd51u5xN57m91uB-75" value="0" style="text;html=1;align=center;verticalAlign=middle;whiteSpace=wrap;rounded=0;fillColor=#ffe6cc;strokeColor=#d79b00;" parent="1" vertex="1">
          <mxGeometry x="911" y="330" width="32" height="15" as="geometry" />
        </mxCell>
        <mxCell id="wEMUQGd51u5xN57m91uB-76" value="0" style="text;html=1;align=center;verticalAlign=middle;whiteSpace=wrap;rounded=0;fillColor=#ffe6cc;strokeColor=#d79b00;" parent="1" vertex="1">
          <mxGeometry x="910" y="450" width="32" height="15" as="geometry" />
        </mxCell>
        <mxCell id="wEMUQGd51u5xN57m91uB-77" value="354" style="text;html=1;align=center;verticalAlign=middle;whiteSpace=wrap;rounded=0;fillColor=#ffe6cc;strokeColor=#d79b00;" parent="1" vertex="1">
          <mxGeometry x="1094" y="450" width="32" height="15" as="geometry" />
        </mxCell>
        <mxCell id="wEMUQGd51u5xN57m91uB-80" value="0" style="text;html=1;align=center;verticalAlign=middle;whiteSpace=wrap;rounded=0;fillColor=#ffe6cc;strokeColor=#d79b00;" parent="1" vertex="1">
          <mxGeometry x="921" y="571" width="32" height="15" as="geometry" />
        </mxCell>
        <mxCell id="wEMUQGd51u5xN57m91uB-81" value="397" style="text;html=1;align=center;verticalAlign=middle;whiteSpace=wrap;rounded=0;fillColor=#ffe6cc;strokeColor=#d79b00;" parent="1" vertex="1">
          <mxGeometry x="1111" y="571" width="32" height="15" as="geometry" />
        </mxCell>
        <mxCell id="wEMUQGd51u5xN57m91uB-82" value="286" style="text;html=1;align=center;verticalAlign=middle;whiteSpace=wrap;rounded=0;fillColor=#ffe6cc;strokeColor=#d79b00;" parent="1" vertex="1">
          <mxGeometry x="1075" y="692" width="32" height="15" as="geometry" />
        </mxCell>
        <mxCell id="wEMUQGd51u5xN57m91uB-83" value="0" style="text;html=1;align=center;verticalAlign=middle;whiteSpace=wrap;rounded=0;fillColor=#ffe6cc;strokeColor=#d79b00;" parent="1" vertex="1">
          <mxGeometry x="921" y="692" width="32" height="15" as="geometry" />
        </mxCell>
        <mxCell id="wEMUQGd51u5xN57m91uB-93" value="" style="endArrow=classic;html=1;rounded=0;" parent="1" edge="1">
          <mxGeometry width="50" height="50" relative="1" as="geometry">
            <mxPoint x="875.5" y="809" as="sourcePoint" />
            <mxPoint x="1586.5" y="809" as="targetPoint" />
          </mxGeometry>
        </mxCell>
        <mxCell id="wEMUQGd51u5xN57m91uB-94" value="t" style="edgeLabel;html=1;align=center;verticalAlign=middle;resizable=0;points=[];" parent="wEMUQGd51u5xN57m91uB-93" vertex="1" connectable="0">
          <mxGeometry x="0.9802" y="-2" relative="1" as="geometry">
            <mxPoint x="8" y="4" as="offset" />
          </mxGeometry>
        </mxCell>
        <mxCell id="wEMUQGd51u5xN57m91uB-95" value="" style="rounded=0;whiteSpace=wrap;html=1;fillColor=#B3B3B3;strokeColor=#000000;" parent="1" vertex="1">
          <mxGeometry x="935.5" y="748" width="139.5" height="61" as="geometry" />
        </mxCell>
        <mxCell id="wEMUQGd51u5xN57m91uB-96" value="5.txt" style="rounded=0;whiteSpace=wrap;html=1;" parent="1" vertex="1">
          <mxGeometry x="968" y="768.5" width="81" height="20" as="geometry" />
        </mxCell>
        <mxCell id="wEMUQGd51u5xN57m91uB-97" value="255" style="text;html=1;align=center;verticalAlign=middle;whiteSpace=wrap;rounded=0;fillColor=#ffe6cc;strokeColor=#d79b00;" parent="1" vertex="1">
          <mxGeometry x="1054" y="813" width="32" height="15" as="geometry" />
        </mxCell>
        <mxCell id="wEMUQGd51u5xN57m91uB-98" value="0" style="text;html=1;align=center;verticalAlign=middle;whiteSpace=wrap;rounded=0;fillColor=#ffe6cc;strokeColor=#d79b00;" parent="1" vertex="1">
          <mxGeometry x="921" y="813" width="32" height="15" as="geometry" />
        </mxCell>
        <mxCell id="wEMUQGd51u5xN57m91uB-104" value="" style="rounded=0;whiteSpace=wrap;html=1;fillColor=#B3B3B3;strokeColor=#000000;" parent="1" vertex="1">
          <mxGeometry x="1890" y="436" width="197" height="61" as="geometry" />
        </mxCell>
        <mxCell id="wEMUQGd51u5xN57m91uB-105" value="" style="endArrow=none;html=1;rounded=0;strokeWidth=1;" parent="1" edge="1">
          <mxGeometry width="50" height="50" relative="1" as="geometry">
            <mxPoint x="1832.5" y="237" as="sourcePoint" />
            <mxPoint x="1832.5" y="67" as="targetPoint" />
          </mxGeometry>
        </mxCell>
        <mxCell id="wEMUQGd51u5xN57m91uB-106" value="" style="endArrow=classic;html=1;rounded=0;" parent="1" edge="1">
          <mxGeometry width="50" height="50" relative="1" as="geometry">
            <mxPoint x="1832.5" y="169" as="sourcePoint" />
            <mxPoint x="2706.5" y="169" as="targetPoint" />
          </mxGeometry>
        </mxCell>
        <mxCell id="wEMUQGd51u5xN57m91uB-107" value="t" style="edgeLabel;html=1;align=center;verticalAlign=middle;resizable=0;points=[];" parent="wEMUQGd51u5xN57m91uB-106" vertex="1" connectable="0">
          <mxGeometry x="0.9802" y="-2" relative="1" as="geometry">
            <mxPoint x="8" y="4" as="offset" />
          </mxGeometry>
        </mxCell>
        <mxCell id="wEMUQGd51u5xN57m91uB-108" value="" style="rounded=0;whiteSpace=wrap;html=1;fillColor=#B3B3B3;strokeColor=#000000;" parent="1" vertex="1">
          <mxGeometry x="1872.5" y="108" width="120" height="61" as="geometry" />
        </mxCell>
        <mxCell id="wEMUQGd51u5xN57m91uB-109" value="" style="rounded=0;whiteSpace=wrap;html=1;fillColor=#B3B3B3;strokeColor=#000000;" parent="1" vertex="1">
          <mxGeometry x="2198.5" y="108" width="120" height="61" as="geometry" />
        </mxCell>
        <mxCell id="wEMUQGd51u5xN57m91uB-110" value="" style="rounded=0;whiteSpace=wrap;html=1;fillColor=#B3B3B3;strokeColor=#000000;" parent="1" vertex="1">
          <mxGeometry x="2037.5" y="108" width="120" height="61" as="geometry" />
        </mxCell>
        <mxCell id="wEMUQGd51u5xN57m91uB-111" value="" style="rounded=0;whiteSpace=wrap;html=1;fillColor=#B3B3B3;strokeColor=#000000;" parent="1" vertex="1">
          <mxGeometry x="2361.5" y="108" width="120" height="61" as="geometry" />
        </mxCell>
        <mxCell id="wEMUQGd51u5xN57m91uB-112" value="1.txt" style="rounded=0;whiteSpace=wrap;html=1;" parent="1" vertex="1">
          <mxGeometry x="1892" y="128.5" width="81" height="20" as="geometry" />
        </mxCell>
        <mxCell id="wEMUQGd51u5xN57m91uB-113" value="2.txt" style="rounded=0;whiteSpace=wrap;html=1;" parent="1" vertex="1">
          <mxGeometry x="2057" y="128.5" width="81" height="20" as="geometry" />
        </mxCell>
        <mxCell id="wEMUQGd51u5xN57m91uB-114" value="3.txt" style="rounded=0;whiteSpace=wrap;html=1;" parent="1" vertex="1">
          <mxGeometry x="2218" y="128.5" width="81" height="20" as="geometry" />
        </mxCell>
        <mxCell id="wEMUQGd51u5xN57m91uB-115" value="4.txt" style="rounded=0;whiteSpace=wrap;html=1;" parent="1" vertex="1">
          <mxGeometry x="2381" y="128.5" width="81" height="20" as="geometry" />
        </mxCell>
        <mxCell id="wEMUQGd51u5xN57m91uB-116" value="3073" style="text;html=1;align=center;verticalAlign=middle;whiteSpace=wrap;rounded=0;fillColor=#ffe6cc;strokeColor=#d79b00;" parent="1" vertex="1">
          <mxGeometry x="1977.5" y="172" width="32" height="15" as="geometry" />
        </mxCell>
        <mxCell id="wEMUQGd51u5xN57m91uB-117" value="0" style="text;html=1;align=center;verticalAlign=middle;whiteSpace=wrap;rounded=0;fillColor=#ffe6cc;strokeColor=#d79b00;" parent="1" vertex="1">
          <mxGeometry x="1855.5" y="172" width="32" height="15" as="geometry" />
        </mxCell>
        <mxCell id="wEMUQGd51u5xN57m91uB-118" value="3074" style="text;html=1;align=center;verticalAlign=middle;whiteSpace=wrap;rounded=0;fillColor=#ffe6cc;strokeColor=#d79b00;" parent="1" vertex="1">
          <mxGeometry x="2021.5" y="172" width="32" height="15" as="geometry" />
        </mxCell>
        <mxCell id="wEMUQGd51u5xN57m91uB-119" value="3442" style="text;html=1;align=center;verticalAlign=middle;whiteSpace=wrap;rounded=0;fillColor=#ffe6cc;strokeColor=#d79b00;" parent="1" vertex="1">
          <mxGeometry x="2141.5" y="172" width="32" height="15" as="geometry" />
        </mxCell>
        <mxCell id="wEMUQGd51u5xN57m91uB-120" value="3444" style="text;html=1;align=center;verticalAlign=middle;whiteSpace=wrap;rounded=0;fillColor=#ffe6cc;strokeColor=#d79b00;" parent="1" vertex="1">
          <mxGeometry x="2183.5" y="172" width="32" height="15" as="geometry" />
        </mxCell>
        <mxCell id="wEMUQGd51u5xN57m91uB-121" value="3863" style="text;html=1;align=center;verticalAlign=middle;whiteSpace=wrap;rounded=0;fillColor=#ffe6cc;strokeColor=#d79b00;" parent="1" vertex="1">
          <mxGeometry x="2302.5" y="172" width="32" height="15" as="geometry" />
        </mxCell>
        <mxCell id="wEMUQGd51u5xN57m91uB-122" value="4153" style="text;html=1;align=center;verticalAlign=middle;whiteSpace=wrap;rounded=0;fillColor=#ffe6cc;strokeColor=#d79b00;" parent="1" vertex="1">
          <mxGeometry x="2464.5" y="172" width="32" height="15" as="geometry" />
        </mxCell>
        <mxCell id="wEMUQGd51u5xN57m91uB-123" value="3864" style="text;html=1;align=center;verticalAlign=middle;whiteSpace=wrap;rounded=0;fillColor=#ffe6cc;strokeColor=#d79b00;" parent="1" vertex="1">
          <mxGeometry x="2346.5" y="172" width="32" height="15" as="geometry" />
        </mxCell>
        <mxCell id="wEMUQGd51u5xN57m91uB-124" value="" style="rounded=0;whiteSpace=wrap;html=1;fillColor=#B3B3B3;strokeColor=#000000;" parent="1" vertex="1">
          <mxGeometry x="2523.5" y="108" width="120" height="61" as="geometry" />
        </mxCell>
        <mxCell id="wEMUQGd51u5xN57m91uB-125" value="5.txt" style="rounded=0;whiteSpace=wrap;html=1;" parent="1" vertex="1">
          <mxGeometry x="2543" y="128.5" width="81" height="20" as="geometry" />
        </mxCell>
        <mxCell id="wEMUQGd51u5xN57m91uB-126" value="4412" style="text;html=1;align=center;verticalAlign=middle;whiteSpace=wrap;rounded=0;fillColor=#ffe6cc;strokeColor=#d79b00;" parent="1" vertex="1">
          <mxGeometry x="2626.5" y="172" width="32" height="15" as="geometry" />
        </mxCell>
        <mxCell id="wEMUQGd51u5xN57m91uB-127" value="4155" style="text;html=1;align=center;verticalAlign=middle;whiteSpace=wrap;rounded=0;fillColor=#ffe6cc;strokeColor=#d79b00;" parent="1" vertex="1">
          <mxGeometry x="2508.5" y="172" width="32" height="15" as="geometry" />
        </mxCell>
        <mxCell id="wEMUQGd51u5xN57m91uB-128" value="" style="endArrow=none;html=1;rounded=0;strokeWidth=1;" parent="1" edge="1">
          <mxGeometry width="50" height="50" relative="1" as="geometry">
            <mxPoint x="1832.5" y="910" as="sourcePoint" />
            <mxPoint x="1832" y="275" as="targetPoint" />
          </mxGeometry>
        </mxCell>
        <mxCell id="wEMUQGd51u5xN57m91uB-129" value="" style="endArrow=classic;html=1;rounded=0;" parent="1" edge="1">
          <mxGeometry width="50" height="50" relative="1" as="geometry">
            <mxPoint x="1832" y="377" as="sourcePoint" />
            <mxPoint x="2531" y="377" as="targetPoint" />
          </mxGeometry>
        </mxCell>
        <mxCell id="wEMUQGd51u5xN57m91uB-130" value="t" style="edgeLabel;html=1;align=center;verticalAlign=middle;resizable=0;points=[];" parent="wEMUQGd51u5xN57m91uB-129" vertex="1" connectable="0">
          <mxGeometry x="0.9802" y="-2" relative="1" as="geometry">
            <mxPoint x="8" y="4" as="offset" />
          </mxGeometry>
        </mxCell>
        <mxCell id="wEMUQGd51u5xN57m91uB-131" value="" style="endArrow=classic;html=1;rounded=0;" parent="1" edge="1">
          <mxGeometry width="50" height="50" relative="1" as="geometry">
            <mxPoint x="1833" y="497" as="sourcePoint" />
            <mxPoint x="2538" y="497" as="targetPoint" />
          </mxGeometry>
        </mxCell>
        <mxCell id="wEMUQGd51u5xN57m91uB-132" value="t" style="edgeLabel;html=1;align=center;verticalAlign=middle;resizable=0;points=[];" parent="wEMUQGd51u5xN57m91uB-131" vertex="1" connectable="0">
          <mxGeometry x="0.9802" y="-2" relative="1" as="geometry">
            <mxPoint x="8" y="4" as="offset" />
          </mxGeometry>
        </mxCell>
        <mxCell id="wEMUQGd51u5xN57m91uB-133" value="" style="endArrow=classic;html=1;rounded=0;" parent="1" edge="1">
          <mxGeometry width="50" height="50" relative="1" as="geometry">
            <mxPoint x="1833" y="618" as="sourcePoint" />
            <mxPoint x="2543" y="618" as="targetPoint" />
          </mxGeometry>
        </mxCell>
        <mxCell id="wEMUQGd51u5xN57m91uB-134" value="t" style="edgeLabel;html=1;align=center;verticalAlign=middle;resizable=0;points=[];" parent="wEMUQGd51u5xN57m91uB-133" vertex="1" connectable="0">
          <mxGeometry x="0.9802" y="-2" relative="1" as="geometry">
            <mxPoint x="8" y="4" as="offset" />
          </mxGeometry>
        </mxCell>
        <mxCell id="wEMUQGd51u5xN57m91uB-135" value="" style="endArrow=classic;html=1;rounded=0;" parent="1" edge="1">
          <mxGeometry width="50" height="50" relative="1" as="geometry">
            <mxPoint x="1832" y="739" as="sourcePoint" />
            <mxPoint x="2543" y="739" as="targetPoint" />
          </mxGeometry>
        </mxCell>
        <mxCell id="wEMUQGd51u5xN57m91uB-136" value="t" style="edgeLabel;html=1;align=center;verticalAlign=middle;resizable=0;points=[];" parent="wEMUQGd51u5xN57m91uB-135" vertex="1" connectable="0">
          <mxGeometry x="0.9802" y="-2" relative="1" as="geometry">
            <mxPoint x="8" y="4" as="offset" />
          </mxGeometry>
        </mxCell>
        <mxCell id="wEMUQGd51u5xN57m91uB-137" value="" style="rounded=0;whiteSpace=wrap;html=1;fillColor=#B3B3B3;strokeColor=#000000;" parent="1" vertex="1">
          <mxGeometry x="1887.5" y="316" width="138" height="61" as="geometry" />
        </mxCell>
        <mxCell id="wEMUQGd51u5xN57m91uB-138" value="" style="rounded=0;whiteSpace=wrap;html=1;fillColor=#B3B3B3;strokeColor=#000000;" parent="1" vertex="1">
          <mxGeometry x="1892.5" y="557" width="226.5" height="61" as="geometry" />
        </mxCell>
        <mxCell id="wEMUQGd51u5xN57m91uB-139" value="" style="rounded=0;whiteSpace=wrap;html=1;fillColor=#B3B3B3;strokeColor=#000000;" parent="1" vertex="1">
          <mxGeometry x="1892.5" y="678" width="142.5" height="61" as="geometry" />
        </mxCell>
        <mxCell id="wEMUQGd51u5xN57m91uB-140" value="1.txt" style="rounded=0;whiteSpace=wrap;html=1;" parent="1" vertex="1">
          <mxGeometry x="1913" y="336.5" width="81" height="20" as="geometry" />
        </mxCell>
        <mxCell id="wEMUQGd51u5xN57m91uB-141" value="2.txt" style="rounded=0;whiteSpace=wrap;html=1;" parent="1" vertex="1">
          <mxGeometry x="1953" y="456.5" width="81" height="20" as="geometry" />
        </mxCell>
        <mxCell id="wEMUQGd51u5xN57m91uB-142" value="3.txt" style="rounded=0;whiteSpace=wrap;html=1;" parent="1" vertex="1">
          <mxGeometry x="1965.25" y="577.5" width="81" height="20" as="geometry" />
        </mxCell>
        <mxCell id="wEMUQGd51u5xN57m91uB-143" value="4.txt" style="rounded=0;whiteSpace=wrap;html=1;" parent="1" vertex="1">
          <mxGeometry x="1920.25" y="698.5" width="81" height="20" as="geometry" />
        </mxCell>
        <mxCell id="wEMUQGd51u5xN57m91uB-144" value="290" style="text;html=1;align=center;verticalAlign=middle;whiteSpace=wrap;rounded=0;fillColor=#ffe6cc;strokeColor=#d79b00;" parent="1" vertex="1">
          <mxGeometry x="2009.5" y="380" width="32" height="15" as="geometry" />
        </mxCell>
        <mxCell id="wEMUQGd51u5xN57m91uB-145" value="1" style="text;html=1;align=center;verticalAlign=middle;whiteSpace=wrap;rounded=0;fillColor=#ffe6cc;strokeColor=#d79b00;" parent="1" vertex="1">
          <mxGeometry x="1872.5" y="380" width="32" height="15" as="geometry" />
        </mxCell>
        <mxCell id="wEMUQGd51u5xN57m91uB-146" value="1" style="text;html=1;align=center;verticalAlign=middle;whiteSpace=wrap;rounded=0;fillColor=#ffe6cc;strokeColor=#d79b00;" parent="1" vertex="1">
          <mxGeometry x="1873" y="500" width="32" height="15" as="geometry" />
        </mxCell>
        <mxCell id="wEMUQGd51u5xN57m91uB-147" value="416" style="text;html=1;align=center;verticalAlign=middle;whiteSpace=wrap;rounded=0;fillColor=#ffe6cc;strokeColor=#d79b00;" parent="1" vertex="1">
          <mxGeometry x="2068" y="500" width="32" height="15" as="geometry" />
        </mxCell>
        <mxCell id="wEMUQGd51u5xN57m91uB-148" value="1" style="text;html=1;align=center;verticalAlign=middle;whiteSpace=wrap;rounded=0;fillColor=#ffe6cc;strokeColor=#d79b00;" parent="1" vertex="1">
          <mxGeometry x="1877.5" y="621" width="32" height="15" as="geometry" />
        </mxCell>
        <mxCell id="wEMUQGd51u5xN57m91uB-149" value="470" style="text;html=1;align=center;verticalAlign=middle;whiteSpace=wrap;rounded=0;fillColor=#ffe6cc;strokeColor=#d79b00;" parent="1" vertex="1">
          <mxGeometry x="2100" y="621" width="32" height="15" as="geometry" />
        </mxCell>
        <mxCell id="wEMUQGd51u5xN57m91uB-150" value="337" style="text;html=1;align=center;verticalAlign=middle;whiteSpace=wrap;rounded=0;fillColor=#ffe6cc;strokeColor=#d79b00;" parent="1" vertex="1">
          <mxGeometry x="2014.25" y="742" width="32" height="15" as="geometry" />
        </mxCell>
        <mxCell id="wEMUQGd51u5xN57m91uB-151" value="1" style="text;html=1;align=center;verticalAlign=middle;whiteSpace=wrap;rounded=0;fillColor=#ffe6cc;strokeColor=#d79b00;" parent="1" vertex="1">
          <mxGeometry x="1877.5" y="742" width="32" height="15" as="geometry" />
        </mxCell>
        <mxCell id="wEMUQGd51u5xN57m91uB-152" value="" style="endArrow=classic;html=1;rounded=0;" parent="1" edge="1">
          <mxGeometry width="50" height="50" relative="1" as="geometry">
            <mxPoint x="1832" y="859" as="sourcePoint" />
            <mxPoint x="2543" y="859" as="targetPoint" />
          </mxGeometry>
        </mxCell>
        <mxCell id="wEMUQGd51u5xN57m91uB-153" value="t" style="edgeLabel;html=1;align=center;verticalAlign=middle;resizable=0;points=[];" parent="wEMUQGd51u5xN57m91uB-152" vertex="1" connectable="0">
          <mxGeometry x="0.9802" y="-2" relative="1" as="geometry">
            <mxPoint x="8" y="4" as="offset" />
          </mxGeometry>
        </mxCell>
        <mxCell id="wEMUQGd51u5xN57m91uB-154" value="" style="rounded=0;whiteSpace=wrap;html=1;fillColor=#B3B3B3;strokeColor=#000000;" parent="1" vertex="1">
          <mxGeometry x="1892" y="798" width="126" height="61" as="geometry" />
        </mxCell>
        <mxCell id="wEMUQGd51u5xN57m91uB-155" value="5.txt" style="rounded=0;whiteSpace=wrap;html=1;" parent="1" vertex="1">
          <mxGeometry x="1916" y="818.5" width="81" height="20" as="geometry" />
        </mxCell>
        <mxCell id="wEMUQGd51u5xN57m91uB-156" value="302" style="text;html=1;align=center;verticalAlign=middle;whiteSpace=wrap;rounded=0;fillColor=#ffe6cc;strokeColor=#d79b00;" parent="1" vertex="1">
          <mxGeometry x="2001.25" y="863" width="32" height="15" as="geometry" />
        </mxCell>
        <mxCell id="wEMUQGd51u5xN57m91uB-157" value="1" style="text;html=1;align=center;verticalAlign=middle;whiteSpace=wrap;rounded=0;fillColor=#ffe6cc;strokeColor=#d79b00;" parent="1" vertex="1">
          <mxGeometry x="1877.5" y="863" width="32" height="15" as="geometry" />
        </mxCell>
        <mxCell id="GsXsnlRsmcOhL5iQExjF-22" style="edgeStyle=orthogonalEdgeStyle;rounded=0;orthogonalLoop=1;jettySize=auto;html=1;entryX=0.5;entryY=0;entryDx=0;entryDy=0;" parent="1" source="GsXsnlRsmcOhL5iQExjF-1" target="GsXsnlRsmcOhL5iQExjF-9" edge="1">
          <mxGeometry relative="1" as="geometry" />
        </mxCell>
        <mxCell id="GsXsnlRsmcOhL5iQExjF-1" value="Начало" style="ellipse;whiteSpace=wrap;html=1;" parent="1" vertex="1">
          <mxGeometry x="3588.5" y="78.5" width="267" height="45" as="geometry" />
        </mxCell>
        <mxCell id="GsXsnlRsmcOhL5iQExjF-13" style="edgeStyle=orthogonalEdgeStyle;rounded=0;orthogonalLoop=1;jettySize=auto;html=1;entryX=0.5;entryY=0;entryDx=0;entryDy=0;" parent="1" source="GsXsnlRsmcOhL5iQExjF-3" target="GsXsnlRsmcOhL5iQExjF-4" edge="1">
          <mxGeometry relative="1" as="geometry" />
        </mxCell>
        <mxCell id="GsXsnlRsmcOhL5iQExjF-3" value="Проверить на дублирование имен файлов, чтобы избежать обработки одного и того же файла несколько раз" style="rounded=0;whiteSpace=wrap;html=1;" parent="1" vertex="1">
          <mxGeometry x="3804" y="286.5" width="214" height="57" as="geometry" />
        </mxCell>
        <mxCell id="GsXsnlRsmcOhL5iQExjF-14" style="edgeStyle=orthogonalEdgeStyle;rounded=0;orthogonalLoop=1;jettySize=auto;html=1;entryX=0.5;entryY=0;entryDx=0;entryDy=0;" parent="1" source="GsXsnlRsmcOhL5iQExjF-4" target="GsXsnlRsmcOhL5iQExjF-5" edge="1">
          <mxGeometry relative="1" as="geometry" />
        </mxCell>
        <mxCell id="GsXsnlRsmcOhL5iQExjF-4" value="Перебирать предоставленные имена файлов и обрабатывать каждый файл в отдельном потоке" style="rounded=0;whiteSpace=wrap;html=1;" parent="1" vertex="1">
          <mxGeometry x="3804" y="365" width="214" height="55" as="geometry" />
        </mxCell>
        <mxCell id="GsXsnlRsmcOhL5iQExjF-15" style="edgeStyle=orthogonalEdgeStyle;rounded=0;orthogonalLoop=1;jettySize=auto;html=1;entryX=0.5;entryY=0;entryDx=0;entryDy=0;" parent="1" source="GsXsnlRsmcOhL5iQExjF-5" target="GsXsnlRsmcOhL5iQExjF-6" edge="1">
          <mxGeometry relative="1" as="geometry" />
        </mxCell>
        <mxCell id="GsXsnlRsmcOhL5iQExjF-5" value="Дождаться завершения всех потоков обработки" style="rounded=0;whiteSpace=wrap;html=1;" parent="1" vertex="1">
          <mxGeometry x="3804" y="442" width="214" height="55" as="geometry" />
        </mxCell>
        <mxCell id="GsXsnlRsmcOhL5iQExjF-16" style="edgeStyle=orthogonalEdgeStyle;rounded=0;orthogonalLoop=1;jettySize=auto;html=1;entryX=0.5;entryY=0;entryDx=0;entryDy=0;" parent="1" source="GsXsnlRsmcOhL5iQExjF-6" target="GsXsnlRsmcOhL5iQExjF-7" edge="1">
          <mxGeometry relative="1" as="geometry" />
        </mxCell>
        <mxCell id="GsXsnlRsmcOhL5iQExjF-6" value="Очистить дескрипторы потоков после завершения обработки файлов" style="rounded=0;whiteSpace=wrap;html=1;" parent="1" vertex="1">
          <mxGeometry x="3804" y="520" width="214" height="55" as="geometry" />
        </mxCell>
        <mxCell id="GsXsnlRsmcOhL5iQExjF-17" style="edgeStyle=orthogonalEdgeStyle;rounded=0;orthogonalLoop=1;jettySize=auto;html=1;entryX=0.5;entryY=0;entryDx=0;entryDy=0;" parent="1" source="GsXsnlRsmcOhL5iQExjF-7" target="GsXsnlRsmcOhL5iQExjF-8" edge="1">
          <mxGeometry relative="1" as="geometry" />
        </mxCell>
        <mxCell id="GsXsnlRsmcOhL5iQExjF-7" value="Измерить время начала, окончания и затраченное время всей программы" style="rounded=0;whiteSpace=wrap;html=1;" parent="1" vertex="1">
          <mxGeometry x="3804" y="601" width="214" height="55" as="geometry" />
        </mxCell>
        <mxCell id="GsXsnlRsmcOhL5iQExjF-18" style="edgeStyle=orthogonalEdgeStyle;rounded=0;orthogonalLoop=1;jettySize=auto;html=1;entryX=0.5;entryY=0;entryDx=0;entryDy=0;" parent="1" source="GsXsnlRsmcOhL5iQExjF-8" target="GsXsnlRsmcOhL5iQExjF-10" edge="1">
          <mxGeometry relative="1" as="geometry">
            <Array as="points">
              <mxPoint x="3911" y="777" />
              <mxPoint x="3725" y="777" />
            </Array>
          </mxGeometry>
        </mxCell>
        <mxCell id="GsXsnlRsmcOhL5iQExjF-8" value="Очистить критическую секцию, используемую для потокобезопасного доступа" style="rounded=0;whiteSpace=wrap;html=1;" parent="1" vertex="1">
          <mxGeometry x="3804" y="681" width="214" height="55" as="geometry" />
        </mxCell>
        <mxCell id="GsXsnlRsmcOhL5iQExjF-11" style="edgeStyle=orthogonalEdgeStyle;rounded=0;orthogonalLoop=1;jettySize=auto;html=1;entryX=0.5;entryY=0;entryDx=0;entryDy=0;" parent="1" source="GsXsnlRsmcOhL5iQExjF-9" target="GsXsnlRsmcOhL5iQExjF-10" edge="1">
          <mxGeometry relative="1" as="geometry">
            <Array as="points">
              <mxPoint x="3459" y="203.5" />
              <mxPoint x="3459" y="777" />
            </Array>
          </mxGeometry>
        </mxCell>
        <mxCell id="GsXsnlRsmcOhL5iQExjF-19" value="Нет" style="edgeLabel;html=1;align=center;verticalAlign=middle;resizable=0;points=[];" parent="GsXsnlRsmcOhL5iQExjF-11" vertex="1" connectable="0">
          <mxGeometry x="-0.9318" y="-1" relative="1" as="geometry">
            <mxPoint x="-4" y="-7" as="offset" />
          </mxGeometry>
        </mxCell>
        <mxCell id="GsXsnlRsmcOhL5iQExjF-12" style="edgeStyle=orthogonalEdgeStyle;rounded=0;orthogonalLoop=1;jettySize=auto;html=1;entryX=0.5;entryY=0;entryDx=0;entryDy=0;" parent="1" source="GsXsnlRsmcOhL5iQExjF-9" target="GsXsnlRsmcOhL5iQExjF-3" edge="1">
          <mxGeometry relative="1" as="geometry">
            <Array as="points">
              <mxPoint x="3911" y="204" />
            </Array>
          </mxGeometry>
        </mxCell>
        <mxCell id="GsXsnlRsmcOhL5iQExjF-9" value="&lt;div&gt;&lt;span style=&quot;background-color: initial;&quot;&gt;Убедиться, что предоставлено&amp;nbsp;&lt;/span&gt;&lt;br&gt;&lt;/div&gt;&lt;div style=&quot;&quot;&gt;необходимое количество&lt;/div&gt;&lt;div style=&quot;&quot;&gt;&amp;nbsp;аргументов/имен файлов&lt;/div&gt;" style="rhombus;whiteSpace=wrap;html=1;" parent="1" vertex="1">
          <mxGeometry x="3549" y="163" width="346" height="81" as="geometry" />
        </mxCell>
        <mxCell id="GsXsnlRsmcOhL5iQExjF-10" value="Конец" style="ellipse;whiteSpace=wrap;html=1;" parent="1" vertex="1">
          <mxGeometry x="3591" y="806" width="267" height="45" as="geometry" />
        </mxCell>
        <mxCell id="GsXsnlRsmcOhL5iQExjF-21" value="Да" style="text;html=1;align=center;verticalAlign=middle;resizable=0;points=[];autosize=1;strokeColor=none;fillColor=none;" parent="1" vertex="1">
          <mxGeometry x="3894.5" y="182" width="33" height="26" as="geometry" />
        </mxCell>
        <mxCell id="GsXsnlRsmcOhL5iQExjF-64" style="edgeStyle=orthogonalEdgeStyle;rounded=0;orthogonalLoop=1;jettySize=auto;html=1;entryX=0.5;entryY=0;entryDx=0;entryDy=0;" parent="1" source="GsXsnlRsmcOhL5iQExjF-43" target="GsXsnlRsmcOhL5iQExjF-44" edge="1">
          <mxGeometry relative="1" as="geometry" />
        </mxCell>
        <mxCell id="GsXsnlRsmcOhL5iQExjF-43" value="Начало" style="ellipse;whiteSpace=wrap;html=1;" parent="1" vertex="1">
          <mxGeometry x="4377" y="81" width="267" height="45" as="geometry" />
        </mxCell>
        <mxCell id="GsXsnlRsmcOhL5iQExjF-63" style="edgeStyle=orthogonalEdgeStyle;rounded=0;orthogonalLoop=1;jettySize=auto;html=1;entryX=0.5;entryY=0;entryDx=0;entryDy=0;" parent="1" source="GsXsnlRsmcOhL5iQExjF-44" target="GsXsnlRsmcOhL5iQExjF-45" edge="1">
          <mxGeometry relative="1" as="geometry" />
        </mxCell>
        <mxCell id="GsXsnlRsmcOhL5iQExjF-44" value="Извлечь имена входных и выходных файлов из предоставленной пары файлов" style="rounded=0;whiteSpace=wrap;html=1;" parent="1" vertex="1">
          <mxGeometry x="4403.5" y="157" width="214" height="57" as="geometry" />
        </mxCell>
        <mxCell id="GsXsnlRsmcOhL5iQExjF-62" style="edgeStyle=orthogonalEdgeStyle;rounded=0;orthogonalLoop=1;jettySize=auto;html=1;entryX=0.5;entryY=0;entryDx=0;entryDy=0;" parent="1" source="GsXsnlRsmcOhL5iQExjF-45" target="GsXsnlRsmcOhL5iQExjF-51" edge="1">
          <mxGeometry relative="1" as="geometry" />
        </mxCell>
        <mxCell id="GsXsnlRsmcOhL5iQExjF-45" value="&lt;span style=&quot;color: rgba(0, 0, 0, 0); font-family: monospace; font-size: 0px; text-align: start; text-wrap: nowrap;&quot;&gt;%3CmxGraphModel%3E%3Croot%3E%3CmxCell%20id%3D%220%22%2F%3E%3CmxCell%20id%3D%221%22%20parent%3D%220%22%2F%3E%3CmxCell%20id%3D%222%22%20value%3D%22%D0%98%D0%B7%D0%B2%D0%BB%D0%B5%D1%87%D1%8C%20%D0%B8%D0%BC%D0%B5%D0%BD%D0%B0%20%D0%B2%D1%85%D0%BE%D0%B4%D0%BD%D1%8B%D1%85%20%D0%B8%20%D0%B2%D1%8B%D1%85%D0%BE%D0%B4%D0%BD%D1%8B%D1%85%20%D1%84%D0%B0%D0%B9%D0%BB%D0%BE%D0%B2%20%D0%B8%D0%B7%20%D0%BF%D1%80%D0%B5%D0%B4%D0%BE%D1%81%D1%82%D0%B0%D0%B2%D0%BB%D0%B5%D0%BD%D0%BD%D0%BE%D0%B9%20%D0%BF%D0%B0%D1%80%D1%8B%20%D1%84%D0%B0%D0%B9%D0%BB%D0%BE%D0%B2%22%20style%3D%22rounded%3D0%3BwhiteSpace%3Dwrap%3Bhtml%3D1%3B%22%20vertex%3D%221%22%20parent%3D%221%22%3E%3CmxGeometry%20x%3D%224403.5%22%20y%3D%22157%22%20width%3D%22214%22%20height%3D%2257%22%20as%3D%22geometry%22%2F%3E%3C%2FmxCell%3E%3C%2Froot%3E%3C%2FmxGraphModel%3E&lt;/span&gt;Открыть входной файл для чтения" style="rounded=0;whiteSpace=wrap;html=1;" parent="1" vertex="1">
          <mxGeometry x="4403.5" y="244" width="214" height="57" as="geometry" />
        </mxCell>
        <mxCell id="GsXsnlRsmcOhL5iQExjF-59" style="edgeStyle=orthogonalEdgeStyle;rounded=0;orthogonalLoop=1;jettySize=auto;html=1;entryX=0.5;entryY=0;entryDx=0;entryDy=0;" parent="1" source="GsXsnlRsmcOhL5iQExjF-48" target="GsXsnlRsmcOhL5iQExjF-49" edge="1">
          <mxGeometry relative="1" as="geometry" />
        </mxCell>
        <mxCell id="GsXsnlRsmcOhL5iQExjF-48" value="Читать каждую строку из входного файла, найти приложение с наибольшим числом знаков препинания, записать в выходной файл" style="rounded=0;whiteSpace=wrap;html=1;" parent="1" vertex="1">
          <mxGeometry x="4598" y="464" width="214" height="72" as="geometry" />
        </mxCell>
        <mxCell id="GsXsnlRsmcOhL5iQExjF-60" style="edgeStyle=orthogonalEdgeStyle;rounded=0;orthogonalLoop=1;jettySize=auto;html=1;entryX=0.5;entryY=0;entryDx=0;entryDy=0;" parent="1" source="GsXsnlRsmcOhL5iQExjF-49" target="GsXsnlRsmcOhL5iQExjF-50" edge="1">
          <mxGeometry relative="1" as="geometry" />
        </mxCell>
        <mxCell id="GsXsnlRsmcOhL5iQExjF-49" value="Закрыть входной и выходной файлы." style="rounded=0;whiteSpace=wrap;html=1;" parent="1" vertex="1">
          <mxGeometry x="4598" y="556" width="214" height="57" as="geometry" />
        </mxCell>
        <mxCell id="GsXsnlRsmcOhL5iQExjF-61" style="edgeStyle=orthogonalEdgeStyle;rounded=0;orthogonalLoop=1;jettySize=auto;html=1;entryX=0.5;entryY=0;entryDx=0;entryDy=0;" parent="1" source="GsXsnlRsmcOhL5iQExjF-50" target="GsXsnlRsmcOhL5iQExjF-53" edge="1">
          <mxGeometry relative="1" as="geometry" />
        </mxCell>
        <mxCell id="GsXsnlRsmcOhL5iQExjF-50" value="Рассчитать время начала и окончания обработки текущего файла" style="rounded=0;whiteSpace=wrap;html=1;" parent="1" vertex="1">
          <mxGeometry x="4598" y="641" width="214" height="57" as="geometry" />
        </mxCell>
        <mxCell id="GsXsnlRsmcOhL5iQExjF-57" style="edgeStyle=orthogonalEdgeStyle;rounded=0;orthogonalLoop=1;jettySize=auto;html=1;entryX=0.5;entryY=0;entryDx=0;entryDy=0;" parent="1" source="GsXsnlRsmcOhL5iQExjF-51" target="GsXsnlRsmcOhL5iQExjF-52" edge="1">
          <mxGeometry relative="1" as="geometry">
            <Array as="points">
              <mxPoint x="4705" y="351" />
            </Array>
          </mxGeometry>
        </mxCell>
        <mxCell id="GsXsnlRsmcOhL5iQExjF-70" value="Нет ошибки открытия" style="edgeLabel;html=1;align=center;verticalAlign=middle;resizable=0;points=[];" parent="GsXsnlRsmcOhL5iQExjF-57" vertex="1" connectable="0">
          <mxGeometry x="-0.7896" y="2" relative="1" as="geometry">
            <mxPoint x="14" y="-12" as="offset" />
          </mxGeometry>
        </mxCell>
        <mxCell id="GsXsnlRsmcOhL5iQExjF-67" style="edgeStyle=orthogonalEdgeStyle;rounded=0;orthogonalLoop=1;jettySize=auto;html=1;endArrow=none;endFill=0;" parent="1" source="GsXsnlRsmcOhL5iQExjF-51" edge="1">
          <mxGeometry relative="1" as="geometry">
            <mxPoint x="4528" y="837" as="targetPoint" />
            <Array as="points">
              <mxPoint x="4300" y="351" />
              <mxPoint x="4300" y="837" />
              <mxPoint x="4528" y="837" />
            </Array>
          </mxGeometry>
        </mxCell>
        <mxCell id="GsXsnlRsmcOhL5iQExjF-69" value="Ошибка открытия" style="edgeLabel;html=1;align=center;verticalAlign=middle;resizable=0;points=[];" parent="GsXsnlRsmcOhL5iQExjF-67" vertex="1" connectable="0">
          <mxGeometry x="-0.9555" relative="1" as="geometry">
            <mxPoint x="-28" y="-11" as="offset" />
          </mxGeometry>
        </mxCell>
        <mxCell id="GsXsnlRsmcOhL5iQExjF-51" value="&lt;span style=&quot;text-wrap: nowrap; color: rgba(0, 0, 0, 0); font-family: monospace; font-size: 0px; text-align: start;&quot;&gt;%3CmxGraphModel%3E%3Croot%3E%3CmxCell%20id%3D%220%22%2F%3E%3CmxCell%20id%3D%221%22%20parent%3D%220%22%2F%3E%3CmxCell%20id%3D%222%22%20value%3D%22%D0%98%D0%B7%D0%B2%D0%BB%D0%B5%D1%87%D1%8C%20%D0%B8%D0%BC%D0%B5%D0%BD%D0%B0%20%D0%B2%D1%85%D0%BE%D0%B4%D0%BD%D1%8B%D1%85%20%D0%B8%20%D0%B2%D1%8B%D1%85%D0%BE%D0%B4%D0%BD%D1%8B%D1%85%20%D1%84%D0%B0%D0%B9%D0%BB%D0%BE%D0%B2%20%D0%B8%D0%B7%20%D0%BF%D1%80%D0%B5%D0%B4%D0%BE%D1%81%D1%82%D0%B0%D0%B2%D0%BB%D0%B5%D0%BD%D0%BD%D0%BE%D0%B9%20%D0%BF%D0%B0%D1%80%D1%8B%20%D1%84%D0%B0%D0%B9%D0%BB%D0%BE%D0%B2%22%20style%3D%22rounded%3D0%3BwhiteSpace%3Dwrap%3Bhtml%3D1%3B%22%20vertex%3D%221%22%20parent%3D%221%22%3E%3CmxGeometry%20x%3D%224403.5%22%20y%3D%22157%22%20width%3D%22214%22%20height%3D%2257%22%20as%3D%22geometry%22%2F%3E%3C%2FmxCell%3E%3C%2Froot%3E%3C%2FmxGraphModel%3E&lt;/span&gt;Открыть входной файл для чтения" style="rhombus;whiteSpace=wrap;html=1;" parent="1" vertex="1">
          <mxGeometry x="4337.5" y="327" width="346" height="48" as="geometry" />
        </mxCell>
        <mxCell id="GsXsnlRsmcOhL5iQExjF-58" style="edgeStyle=orthogonalEdgeStyle;rounded=0;orthogonalLoop=1;jettySize=auto;html=1;entryX=0.5;entryY=0;entryDx=0;entryDy=0;" parent="1" source="GsXsnlRsmcOhL5iQExjF-52" target="GsXsnlRsmcOhL5iQExjF-48" edge="1">
          <mxGeometry relative="1" as="geometry" />
        </mxCell>
        <mxCell id="GsXsnlRsmcOhL5iQExjF-52" value="&lt;span style=&quot;text-wrap: nowrap; color: rgba(0, 0, 0, 0); font-family: monospace; font-size: 0px; text-align: start;&quot;&gt;%3CmxGraphModel%3E%3Croot%3E%3CmxCell%20id%3D%220%22%2F%3E%3CmxCell%20id%3D%221%22%20parent%3D%220%22%2F%3E%3CmxCell%20id%3D%222%22%20value%3D%22%D0%98%D0%B7%D0%B2%D0%BB%D0%B5%D1%87%D1%8C%20%D0%B8%D0%BC%D0%B5%D0%BD%D0%B0%20%D0%B2%D1%85%D0%BE%D0%B4%D0%BD%D1%8B%D1%85%20%D0%B8%20%D0%B2%D1%8B%D1%85%D0%BE%D0%B4%D0%BD%D1%8B%D1%85%20%D1%84%D0%B0%D0%B9%D0%BB%D0%BE%D0%B2%20%D0%B8%D0%B7%20%D0%BF%D1%80%D0%B5%D0%B4%D0%BE%D1%81%D1%82%D0%B0%D0%B2%D0%BB%D0%B5%D0%BD%D0%BD%D0%BE%D0%B9%20%D0%BF%D0%B0%D1%80%D1%8B%20%D1%84%D0%B0%D0%B9%D0%BB%D0%BE%D0%B2%22%20style%3D%22rounded%3D0%3BwhiteSpace%3Dwrap%3Bhtml%3D1%3B%22%20vertex%3D%221%22%20parent%3D%221%22%3E%3CmxGeometry%20x%3D%224403.5%22%20y%3D%22157%22%20width%3D%22214%22%20height%3D%2257%22%20as%3D%22geometry%22%2F%3E%3C%2FmxCell%3E%3C%2Froot%3E%3C%2FmxGraphModel%3E&lt;/span&gt;Открыть выходной файл для записи" style="rhombus;whiteSpace=wrap;html=1;" parent="1" vertex="1">
          <mxGeometry x="4532" y="401" width="346" height="48" as="geometry" />
        </mxCell>
        <mxCell id="GsXsnlRsmcOhL5iQExjF-68" style="edgeStyle=orthogonalEdgeStyle;rounded=0;orthogonalLoop=1;jettySize=auto;html=1;endArrow=none;endFill=0;" parent="1" source="GsXsnlRsmcOhL5iQExjF-53" edge="1">
          <mxGeometry relative="1" as="geometry">
            <mxPoint x="4528" y="837" as="targetPoint" />
            <Array as="points">
              <mxPoint x="4705" y="837" />
              <mxPoint x="4527" y="837" />
            </Array>
          </mxGeometry>
        </mxCell>
        <mxCell id="GsXsnlRsmcOhL5iQExjF-53" value="Сохранить информацию о времени обработки файла в общий вектор" style="rounded=0;whiteSpace=wrap;html=1;" parent="1" vertex="1">
          <mxGeometry x="4598" y="728.5" width="214" height="57" as="geometry" />
        </mxCell>
        <mxCell id="GsXsnlRsmcOhL5iQExjF-54" value="Конец" style="ellipse;whiteSpace=wrap;html=1;" parent="1" vertex="1">
          <mxGeometry x="4389" y="874" width="267" height="45" as="geometry" />
        </mxCell>
        <mxCell id="GsXsnlRsmcOhL5iQExjF-65" style="edgeStyle=orthogonalEdgeStyle;rounded=0;orthogonalLoop=1;jettySize=auto;html=1;entryX=0.52;entryY=-0.013;entryDx=0;entryDy=0;entryPerimeter=0;endArrow=classic;endFill=1;" parent="1" source="GsXsnlRsmcOhL5iQExjF-52" target="GsXsnlRsmcOhL5iQExjF-54" edge="1">
          <mxGeometry relative="1" as="geometry">
            <Array as="points">
              <mxPoint x="4528" y="425" />
            </Array>
          </mxGeometry>
        </mxCell>
      </root>
    </mxGraphModel>
  </diagram>
</mxfile>
